<svg width="34" height="23" viewBox="0 0 34 23" fill="none" xmlns="http://www.w3.org/2000/svg">
<path d="M32.0056 13.4482H8.56401H1.99445C0.892786 13.4482 0 14.341 0 15.4427V20.0448C0 21.1464 0.892786 22.0392 1.99445 22.0392H8.56401H32.0056C33.1072 22.0392 34 21.1464 34 20.0448V15.4427C34 14.341 33.1072 13.4482 32.0056 13.4482Z" fill="#CCCCCC"/>
<path d="M32.0056 1.40381H8.56401H1.99445C0.892786 1.40381 0 2.29659 0 3.39826V8.00032C0 9.10198 0.892786 9.99477 1.99445 9.99477H8.56401H32.0056C33.1072 9.99477 34 9.10198 34 8.00032V3.39826C34 2.29659 33.1072 1.40381 32.0056 1.40381Z" fill="#CCCCCC"/>
<path d="M8.56401 12.311V20.902H1.99445C0.892787 20.902 0 20.0092 0 18.9075V14.3055C0 13.2038 0.892787 12.311 1.99445 12.311H8.56401Z" fill="#B9D649"/>
<path d="M34 14.3055V18.9075C34 20.0092 33.1072 20.902 32.0056 20.902H8.56403V12.311H32.0056C33.1072 12.311 34 13.2038 34 14.3055Z" fill="#6749D6"/>
<path d="M34 2.26105V6.86311C34 7.96478 33.1072 8.85756 32.0056 8.85756H8.56403V0.266602H32.0056C33.1072 0.266602 34 1.15939 34 2.26105Z" fill="#6749D6"/>
<path d="M8.56401 0.266602V8.85756H1.99445C0.892787 8.85756 0 7.96478 0 6.86311V2.26105C0 1.15939 0.892787 0.266602 1.99445 0.266602H8.56401Z" fill="#B9D649"/>
<path d="M5.97113 7.2151H2.73419V6.69855C2.73419 5.8061 3.46021 5.08008 4.35266 5.08008C5.24511 5.08008 5.97113 5.8061 5.97113 6.69855V7.2151Z" fill="white"/>
<path d="M4.35266 5.3551C3.46021 5.3551 2.73419 4.62908 2.73419 3.73663C2.73419 2.84418 3.46021 2.11816 4.35266 2.11816C5.24511 2.11816 5.97113 2.84418 5.97113 3.73663C5.97113 4.62908 5.24511 5.3551 4.35266 5.3551Z" fill="white"/>
<path d="M13.112 17.7709C12.4699 17.7709 11.9475 17.2485 11.9475 16.6064C11.9475 15.9643 12.4699 15.4419 13.112 15.4419C13.7541 15.4419 14.2765 15.9643 14.2765 16.6064C14.2765 17.2485 13.7541 17.7709 13.112 17.7709Z" fill="white"/>
<path d="M3.97447 16.3609H3.01001V15.2035C3.01001 14.3702 3.68785 13.6924 4.52109 13.6924C5.35433 13.6924 6.03218 14.3702 6.03218 15.2035H5.06763C5.06763 14.9021 4.82245 14.6569 4.52109 14.6569C4.21974 14.6569 3.97456 14.9021 3.97456 15.2035L3.97447 16.3609Z" fill="white"/>
<path d="M6.03218 19.0379H3.01001V16.3608H6.03218V19.0379Z" fill="white"/>
<path d="M23.8929 17.7709C23.2508 17.7709 22.7284 17.2485 22.7284 16.6064C22.7284 15.9643 23.2508 15.4419 23.8929 15.4419C24.5349 15.4419 25.0574 15.9643 25.0574 16.6064C25.0574 17.2485 24.535 17.7709 23.8929 17.7709Z" fill="white"/>
<path d="M29.2833 5.72694C28.6412 5.72694 28.1188 5.20458 28.1188 4.56245C28.1188 3.92031 28.6412 3.39795 29.2833 3.39795C29.9255 3.39795 30.4478 3.92031 30.4478 4.56245C30.4478 5.20458 29.9255 5.72694 29.2833 5.72694Z" fill="white"/>
<path d="M18.5025 17.7709C17.8604 17.7709 17.338 17.2485 17.338 16.6064C17.338 15.9643 17.8604 15.4419 18.5025 15.4419C19.1446 15.4419 19.667 15.9643 19.667 16.6064C19.667 17.2485 19.1446 17.7709 18.5025 17.7709Z" fill="white"/>
<path d="M13.112 5.72694C12.4699 5.72694 11.9475 5.20458 11.9475 4.56245C11.9475 3.92031 12.4699 3.39795 13.112 3.39795C13.7541 3.39795 14.2765 3.92031 14.2765 4.56245C14.2765 5.20458 13.7541 5.72694 13.112 5.72694Z" fill="white"/>
<path d="M23.8929 5.72694C23.2508 5.72694 22.7284 5.20458 22.7284 4.56245C22.7284 3.92031 23.2508 3.39795 23.8929 3.39795C24.5349 3.39795 25.0574 3.92031 25.0574 4.56245C25.0574 5.20458 24.535 5.72694 23.8929 5.72694Z" fill="white"/>
<path d="M18.5025 5.72694C17.8604 5.72694 17.338 5.20458 17.338 4.56245C17.338 3.92031 17.8604 3.39795 18.5025 3.39795C19.1446 3.39795 19.667 3.92031 19.667 4.56245C19.667 5.20458 19.1446 5.72694 18.5025 5.72694Z" fill="white"/>
<path opacity="0.23" d="M34 2.26105V6.86311C34 7.96478 33.1072 8.85756 32.0055 8.85756H21.9213L26.3919 0.266602H32.0055C33.1072 0.266602 34 1.15939 34 2.26105Z" fill="#F2F2F2"/>
<path opacity="0.23" d="M34 14.3055V18.9075C34 20.0092 33.1072 20.902 32.0055 20.902H15.6541L20.1247 12.311H32.0055C33.1072 12.311 34 13.2038 34 14.3055Z" fill="#F2F2F2"/>
<path opacity="0.23" d="M1.99445 12.311H3.42207L1.67103 15.6758L0 18.8873V14.3055C0 13.2038 0.892787 12.311 1.99445 12.311Z" fill="#F2F2F2"/>
<path opacity="0.23" d="M9.68926 0.266602L8.56401 2.4295L7.91379 3.67856L6.91741 5.59384L5.21859 8.85756H1.99445C0.892786 8.85756 0 7.96478 0 6.86311V2.26105C0 1.15939 0.892786 0.266602 1.99445 0.266602H9.68926Z" fill="#F2F2F2"/>
</svg>
