<svg width="80" height="52" viewBox="0 0 120 77" fill="none" xmlns="http://www.w3.org/2000/svg">
<path d="M112.961 46.5222H30.2259H7.03924C3.15101 46.5222 0 49.6732 0 53.5615V69.804C0 73.6923 3.15101 76.8433 7.03924 76.8433H30.2259H112.961C116.849 76.8433 120 73.6923 120 69.804V53.5615C120 49.6732 116.849 46.5222 112.961 46.5222Z" fill="#CCCCCC"/>
<path d="M112.961 4.01318H30.2259H7.03924C3.15101 4.01318 0 7.16419 0 11.0524V27.295C0 31.1832 3.15101 34.3342 7.03924 34.3342H30.2259H112.961C116.849 34.3342 120 31.1832 120 27.295V11.0524C120 7.16419 116.849 4.01318 112.961 4.01318Z" fill="#CCCCCC"/>
<path d="M30.2259 42.509V72.8301H7.03924C3.15101 72.8301 0 69.6791 0 65.7908V49.5483C0 45.66 3.15101 42.509 7.03924 42.509H30.2259Z" fill="#B9D649"/>
<path d="M120 49.5483V65.7908C120 69.6791 116.849 72.8301 112.961 72.8301H30.2258V42.509H112.961C116.849 42.509 120 45.66 120 49.5483Z" fill="#6749D6"/>
<path d="M120 7.03924V23.2818C120 27.17 116.849 30.321 112.961 30.321H30.2258V0H112.961C116.849 0 120 3.15101 120 7.03924Z" fill="#6749D6"/>
<path d="M30.2259 0V30.321H7.03924C3.15101 30.321 0 27.17 0 23.2818V7.03924C0 3.15101 3.15101 0 7.03924 0H30.2259Z" fill="#B9D649"/>
<path d="M21.0746 24.5246H9.65015V22.7015C9.65015 19.5517 12.2126 16.9893 15.3624 16.9893C18.5122 16.9893 21.0746 19.5517 21.0746 22.7015V24.5246Z" fill="white"/>
<path d="M15.3624 17.9601C12.2126 17.9601 9.65015 15.3977 9.65015 12.2479C9.65015 9.09807 12.2126 6.53564 15.3624 6.53564C18.5122 6.53564 21.0746 9.09807 21.0746 12.2479C21.0746 15.3977 18.5122 17.9601 15.3624 17.9601Z" fill="white"/>
<path d="M46.2777 61.78C44.0114 61.78 42.1677 59.9364 42.1677 57.67C42.1677 55.4037 44.0114 53.5601 46.2777 53.5601C48.5441 53.5601 50.3877 55.4037 50.3877 57.67C50.3877 59.9364 48.5441 61.78 46.2777 61.78Z" fill="white"/>
<path d="M14.0278 56.8038H10.6238V52.7187C10.6238 49.7779 13.0162 47.3855 15.957 47.3855C18.8979 47.3855 21.2902 49.7779 21.2902 52.7187H17.886C17.886 51.6551 17.0206 50.7898 15.957 50.7898C14.8934 50.7898 14.0281 51.6551 14.0281 52.7187L14.0278 56.8038Z" fill="white"/>
<path d="M21.2902 66.2523H10.6238V56.8037H21.2902V66.2523Z" fill="white"/>
<path d="M84.3278 61.78C82.0614 61.78 80.2178 59.9364 80.2178 57.67C80.2178 55.4037 82.0617 53.5601 84.3278 53.5601C86.5938 53.5601 88.4378 55.4037 88.4378 57.67C88.4378 59.9364 86.5941 61.78 84.3278 61.78Z" fill="white"/>
<path d="M103.353 19.271C101.087 19.271 99.2429 17.4274 99.2429 15.161C99.2429 12.8947 101.087 11.051 103.353 11.051C105.619 11.051 107.463 12.8947 107.463 15.161C107.463 17.4274 105.619 19.271 103.353 19.271Z" fill="white"/>
<path d="M65.3029 61.78C63.0365 61.78 61.1929 59.9364 61.1929 57.67C61.1929 55.4037 63.0365 53.5601 65.3029 53.5601C67.5692 53.5601 69.4129 55.4037 69.4129 57.67C69.4129 59.9364 67.5692 61.78 65.3029 61.78Z" fill="white"/>
<path d="M46.2777 19.271C44.0114 19.271 42.1677 17.4274 42.1677 15.161C42.1677 12.8947 44.0114 11.051 46.2777 11.051C48.5441 11.051 50.3877 12.8947 50.3877 15.161C50.3877 17.4274 48.5441 19.271 46.2777 19.271Z" fill="white"/>
<path d="M84.3278 19.271C82.0614 19.271 80.2178 17.4274 80.2178 15.161C80.2178 12.8947 82.0617 11.051 84.3278 11.051C86.5938 11.051 88.4378 12.8947 88.4378 15.161C88.4378 17.4274 86.5941 19.271 84.3278 19.271Z" fill="white"/>
<path d="M65.3029 19.271C63.0365 19.271 61.1929 17.4274 61.1929 15.161C61.1929 12.8947 63.0365 11.051 65.3029 11.051C67.5692 11.051 69.4129 12.8947 69.4129 15.161C69.4129 17.4274 67.5692 19.271 65.3029 19.271Z" fill="white"/>
<path opacity="0.23" d="M120 7.03924V23.2818C120 27.17 116.849 30.321 112.961 30.321H77.3691L93.148 0H112.961C116.849 0 120 3.15101 120 7.03924Z" fill="#F2F2F2"/>
<path opacity="0.23" d="M120 49.5483V65.7908C120 69.6791 116.849 72.8301 112.961 72.8301H55.2498L71.0286 42.509H112.961C116.849 42.509 120 45.66 120 49.5483Z" fill="#F2F2F2"/>
<path opacity="0.23" d="M7.03924 42.509H12.0779L5.89774 54.3848L0 65.7195V49.5483C0 45.66 3.15101 42.509 7.03924 42.509Z" fill="#F2F2F2"/>
<path opacity="0.23" d="M34.1974 0L30.2259 7.63377L27.931 12.0422L24.4144 18.802L18.4185 30.321H7.03924C3.15101 30.321 0 27.17 0 23.2818V7.03924C0 3.15101 3.15101 0 7.03924 0H34.1974Z" fill="#F2F2F2"/>
</svg>
